<svg xmlns="http://www.w3.org/2000/svg" xmlns:xlink="http://www.w3.org/1999/xlink" width="868" height="761pt" viewBox="0 0 651.19 761"><g id="graph0" class="graph" transform="scale(1 1) rotate(0) translate(4 757)"><title>G</title><polygon fill="#fff" stroke="transparent" points="-4 4 -4 -757 647.19 -757 647.19 4 -4 4"/><g id="clust1" class="cluster"><title>cluster_mlir</title><polygon fill="none" stroke="#000" points="101.27 -654 101.27 -745 413.27 -745 413.27 -654 101.27 -654"/><text x="257.27" y="-729.8" font-family="Times,serif" font-size="14" text-anchor="middle">Upstream MLIR</text></g><g id="clust2" class="cluster"><title>cluster_std_arith_dialect</title><polygon fill="none" stroke="#000" points="175.27 -662 175.27 -714 343.27 -714 343.27 -662 175.27 -662"/></g><g id="clust3" class="cluster"><title>cluster_circt</title><polygon fill="none" stroke="#000" points="169.27 -136 169.27 -646 565.27 -646 565.27 -136 169.27 -136"/><text x="367.27" y="-630.8" font-family="Times,serif" font-size="14" text-anchor="middle">CIRCT</text></g><g id="clust5" class="cluster"><title>cluster_RTL</title><polygon fill="none" stroke="#000" points="188.27 -208 188.27 -355 398.27 -355 398.27 -208 188.27 -208"/><text x="293.27" y="-339.8" font-family="Times,serif" font-size="14" text-anchor="middle">RTL dialects</text></g><g id="node1" class="node"><title>SCF</title><polygon fill="#beaed4" stroke="#000" points="405.27 -706 351.27 -706 351.27 -670 405.27 -670 405.27 -706"/><text x="378.27" y="-684.3" font-family="Times,serif" font-size="14" text-anchor="middle">SCF</text></g><g id="node6" class="node"><title>Calyx</title><g id="a_node6"><a xlink:href="https://circt.llvm.org/docs/Dialects/Calyx/" xlink:title="Calyx"><polygon fill="#fff" stroke="#000" points="233.27 -471 177.27 -471 177.27 -435 233.27 -435 233.27 -471"/><text x="205.27" y="-449.3" font-family="Times,serif" font-size="14" text-anchor="middle">Calyx</text></a></g></g><g id="edge1" class="edge"><title>SCF-&gt;Calyx</title><path fill="none" stroke="#000" d="M374.75,-669.87C366.88,-635.31 344.94,-556.38 300.27,-507 291.64,-497.46 265.3,-483.07 242.53,-471.68"/><polygon fill="#000" stroke="#000" points="243.9 -468.46 233.38 -467.17 240.8 -474.73 243.9 -468.46"/></g><g id="node2" class="node"><title>Affine</title><polygon fill="#beaed4" stroke="#000" points="167.27 -706 109.27 -706 109.27 -670 167.27 -670 167.27 -706"/><text x="138.27" y="-684.3" font-family="Times,serif" font-size="14" text-anchor="middle">Affine</text></g><g id="node8" class="node"><title>StaticLogic</title><g id="a_node8"><a xlink:href="https://circt.llvm.org/docs/Dialects/StaticLogic/" xlink:title="StaticLogic"><polygon fill="#fff" stroke="#000" points="273.77 -543 176.77 -543 176.77 -507 273.77 -507 273.77 -543"/><text x="225.27" y="-521.3" font-family="Times,serif" font-size="14" text-anchor="middle">StaticLogic</text></a></g></g><g id="edge2" class="edge"><title>Affine-&gt;StaticLogic</title><path fill="none" stroke="#000" stroke-dasharray="5 2" d="M140.58,-669.81C144.17,-647.52 152.6,-608.08 170.27,-579 176.72,-568.39 185.8,-558.46 194.73,-550.12"/><polygon fill="#000" stroke="#000" points="197.33 -552.5 202.47 -543.23 192.68 -547.27 197.33 -552.5"/></g><g id="node3" class="node"><title>Standard</title><polygon fill="#beaed4" stroke="#000" points="266.77 -706 183.77 -706 183.77 -670 266.77 -670 266.77 -706"/><text x="225.27" y="-684.3" font-family="Times,serif" font-size="14" text-anchor="middle">Standard</text></g><g id="node19" class="node"><title>Scheduling</title><polygon fill="#fdc086" stroke="#000" points="273.27 -615 177.27 -615 177.27 -579 273.27 -579 273.27 -615"/><text x="225.27" y="-593.3" font-family="Times,serif" font-size="14" text-anchor="middle">Scheduling</text></g><g id="node4" class="node"><title>Arith</title><polygon fill="#beaed4" stroke="#000" points="335.27 -706 281.27 -706 281.27 -670 335.27 -670 335.27 -706"/><text x="308.27" y="-684.3" font-family="Times,serif" font-size="14" text-anchor="middle">Arith</text></g><g id="node5" class="node"><title>Handshake</title><g id="a_node5"><a xlink:href="https://circt.llvm.org/docs/Dialects/Handshake/" xlink:title="Handshake"><polygon fill="#fff" stroke="#000" points="425.27 -471 329.27 -471 329.27 -435 425.27 -435 425.27 -471"/><text x="377.27" y="-449.3" font-family="Times,serif" font-size="14" text-anchor="middle">Handshake</text></a></g></g><g id="edge4" class="edge"><title>Arith-&gt;Handshake</title><path fill="none" stroke="#000" d="M315.68,-662C328.75,-617.85 355.83,-526.42 369.3,-480.93"/><polygon fill="#000" stroke="#000" points="372.71 -481.74 372.19 -471.16 366 -479.75 372.71 -481.74"/></g><g id="edge5" class="edge"><title>Arith-&gt;Calyx</title><path fill="none" stroke="#000" d="M310.46,-662C312.44,-625.18 311.37,-555.5 281.27,-507 276.15,-498.74 258.91,-486.45 242.14,-475.79"/><polygon fill="#000" stroke="#000" points="243.82 -472.72 233.48 -470.4 240.12 -478.66 243.82 -472.72"/></g><g id="node7" class="node"><title>FIRRTL</title><g id="a_node7"><a xlink:href="https://circt.llvm.org/docs/Dialects/FIRRTL/" xlink:title="FIRRTL"><polygon fill="#fff" stroke="#000" points="412.77 -399 341.77 -399 341.77 -363 412.77 -363 412.77 -399"/><text x="377.27" y="-377.3" font-family="Times,serif" font-size="14" text-anchor="middle">FIRRTL</text></a></g></g><g id="edge6" class="edge"><title>Handshake-&gt;FIRRTL</title><path fill="none" stroke="#000" d="M377.27,-434.7C377.27,-426.98 377.27,-417.71 377.27,-409.11"/><polygon fill="#000" stroke="#000" points="380.77 -409.1 377.27 -399.1 373.77 -409.1 380.77 -409.1"/></g><g id="node11" class="node"><title>FSM</title><g id="a_node11"><a xlink:href="https://circt.llvm.org/docs/Dialects/FSM/" xlink:title="FSM"><polygon fill="#fff" stroke="#000" points="236.27 -399 182.27 -399 182.27 -363 236.27 -363 236.27 -399"/><text x="209.27" y="-377.3" font-family="Times,serif" font-size="14" text-anchor="middle">FSM</text></a></g></g><g id="edge7" class="edge"><title>Calyx-&gt;FSM</title><path fill="none" stroke="#000" stroke-dasharray="5 2" d="M206.26,-434.7C206.7,-426.98 207.23,-417.71 207.72,-409.11"/><polygon fill="#000" stroke="#000" points="211.22 -409.29 208.3 -399.1 204.23 -408.89 211.22 -409.29"/></g><g id="node23" class="node"><title>Calyx_native</title><polygon fill="#ff9" stroke="#000" points="150.32 -154.54 150.32 -169.46 106.36 -180 44.19 -180 .23 -169.46 .23 -154.54 44.19 -144 106.36 -144 150.32 -154.54"/><text x="75.27" y="-158.3" font-family="Times,serif" font-size="14" text-anchor="middle">Calyx_native</text></g><g id="edge26" class="edge"><title>Calyx-&gt;Calyx_native</title><path fill="none" stroke="#000" d="M177.11,-449.61C144.55,-445.28 91.81,-433.11 63.27,-399 13.14,-339.07 44.24,-237.69 63.46,-189.71"/><polygon fill="#000" stroke="#000" points="66.75 -190.89 67.34 -180.31 60.29 -188.21 66.75 -190.89"/></g><g id="node13" class="node"><title>HW</title><g id="a_node13"><a xlink:href="https://circt.llvm.org/docs/Dialects/HW/" xlink:title="HW"><polygon fill="#fff" stroke="#000" points="390.27 -324 336.27 -324 336.27 -288 390.27 -288 390.27 -324"/><text x="363.27" y="-302.3" font-family="Times,serif" font-size="14" text-anchor="middle">HW</text></a></g></g><g id="edge8" class="edge"><title>FIRRTL-&gt;HW</title><path fill="none" stroke="#000" d="M373.96,-362.7C373.93,-362.55 373.9,-362.4 373.87,-362.24"/><polygon fill="#000" stroke="#000" points="377.8 -364.16 372.48 -355 370.93 -365.48 377.8 -364.16"/></g><g id="edge3" class="edge"><title>StaticLogic-&gt;Calyx</title><path fill="none" stroke="#000" stroke-dasharray="5 2" d="M220.33,-506.7C218.1,-498.9 215.42,-489.51 212.94,-480.83"/><polygon fill="#000" stroke="#000" points="216.27 -479.76 210.16 -471.1 209.54 -481.68 216.27 -479.76"/></g><g id="node9" class="node"><title>MSFT</title><g id="a_node9"><a xlink:href="https://circt.llvm.org/docs/Dialects/MSFT/" xlink:title="MSFT"><polygon fill="#fff" stroke="#000" points="498.77 -399 439.77 -399 439.77 -363 498.77 -363 498.77 -399"/><text x="469.27" y="-377.3" font-family="Times,serif" font-size="14" text-anchor="middle">MSFT</text></a></g></g><g id="edge9" class="edge"><title>MSFT-&gt;HW</title><path fill="none" stroke="#000" d="M439.53,-369.49C433.19,-367.3 426.52,-365.04 420.27,-363 412.91,-360.59 408.27,-360.98 403.35,-359.65"/><polygon fill="#000" stroke="#000" points="404.77 -356.45 394.27 -355 401.58 -362.68 404.77 -356.45"/></g><g id="node30" class="node"><title>TCL</title><polygon fill="#7fc97f" stroke="#000" points="483.27 -108 435.27 -108 435.27 -72 489.27 -72 489.27 -102 483.27 -108"/><polyline fill="none" stroke="#000" points="483.27 -108 483.27 -102"/><polyline fill="none" stroke="#000" points="489.27 -102 483.27 -102"/><text x="462.27" y="-86.3" font-family="Times,serif" font-size="14" text-anchor="middle">.tcl</text></g><g id="edge36" class="edge"><title>MSFT-&gt;TCL</title><path fill="none" stroke="#000" d="M468.86,-362.79C467.68,-314.4 464.35,-176.87 462.93,-118.13"/><polygon fill="#000" stroke="#000" points="466.43 -118.03 462.69 -108.12 459.43 -118.2 466.43 -118.03"/></g><g id="node10" class="node"><title>ESI</title><g id="a_node10"><a xlink:href="https://circt.llvm.org/docs/Dialects/ESI/" xlink:title="ESI"><polygon fill="#fff" stroke="#000" points="308.27 -399 254.27 -399 254.27 -363 308.27 -363 308.27 -399"/><text x="281.27" y="-377.3" font-family="Times,serif" font-size="14" text-anchor="middle">ESI</text></a></g></g><g id="edge10" class="edge"><title>ESI-&gt;HW</title><path fill="none" stroke="#000" d="M308.36,-368.73C312.66,-366.5 317.05,-363.98 321.2,-361.16"/><polygon fill="#000" stroke="#000" points="323.45 -363.85 329.27 -355 319.2 -358.29 323.45 -363.85"/></g><g id="node29" class="node"><title>CapNProto</title><polygon fill="#7fc97f" stroke="#000" points="214.77 -108 119.77 -108 119.77 -72 220.77 -72 220.77 -102 214.77 -108"/><polyline fill="none" stroke="#000" points="214.77 -108 214.77 -102"/><polyline fill="none" stroke="#000" points="220.77 -102 214.77 -102"/><text x="170.27" y="-86.3" font-family="Times,serif" font-size="14" text-anchor="middle">Cap&apos;n Proto</text></g><g id="edge35" class="edge"><title>ESI-&gt;CapNProto</title><path fill="none" stroke="#000" d="M254.22,-366.79C250.6,-365.35 246.89,-364.03 243.27,-363 230.77,-359.42 194.1,-364.56 185.27,-355 154.13,-321.25 162.5,-179.04 167.65,-118.48"/><polygon fill="#000" stroke="#000" points="171.16 -118.44 168.56 -108.17 164.19 -117.82 171.16 -118.44"/></g><g id="edge11" class="edge"><title>FSM-&gt;HW</title><path fill="none" stroke="#000" d="M236.29,-366.65C239.92,-365.24 243.64,-363.96 247.27,-363 262.21,-359.04 299.04,-362.61 319.7,-358.3"/><polygon fill="#000" stroke="#000" points="320.96 -361.57 329.27 -355 318.68 -354.95 320.96 -361.57"/></g><g id="node12" class="node"><title>Seq</title><g id="a_node12"><a xlink:href="https://circt.llvm.org/docs/Dialects/Seq/" xlink:title="Seq"><polygon fill="#fff" stroke="#000" points="322.27 -324 268.27 -324 268.27 -288 322.27 -288 322.27 -324"/><text x="295.27" y="-302.3" font-family="Times,serif" font-size="14" text-anchor="middle">Seq</text></a></g></g><g id="node14" class="node"><title>SV</title><g id="a_node14"><a xlink:href="https://circt.llvm.org/docs/Dialects/SV/" xlink:title="SV"><polygon fill="#fff" stroke="#000" points="295.27 -252 241.27 -252 241.27 -216 295.27 -216 295.27 -252"/><text x="268.27" y="-230.3" font-family="Times,serif" font-size="14" text-anchor="middle">SV</text></a></g></g><g id="edge13" class="edge"><title>Seq-&gt;SV</title><path fill="none" stroke="#000" d="M288.6,-287.7C285.56,-279.81 281.89,-270.3 278.51,-261.55"/><polygon fill="#000" stroke="#000" points="281.74 -260.17 274.87 -252.1 275.2 -262.69 281.74 -260.17"/></g><g id="node20" class="node"><title>llhd_sim</title><polygon fill="#fdc086" stroke="#000" points="400.27 -180 324.27 -180 324.27 -144 400.27 -144 400.27 -180"/><text x="362.27" y="-158.3" font-family="Times,serif" font-size="14" text-anchor="middle">llhd_sim</text></g><g id="edge30" class="edge"><title>Seq-&gt;llhd_sim</title><path fill="none" stroke="#000" d="M322.53,-290.91C347.99,-277.46 382.63,-258.34 386.27,-252 397.53,-232.42 389.08,-207.37 379.23,-188.84"/><polygon fill="#000" stroke="#000" points="382.21 -187 374.2 -180.06 376.13 -190.48 382.21 -187"/></g><g id="node16" class="node"><title>LLHD</title><g id="a_node16"><a xlink:href="https://circt.llvm.org/docs/Dialects/LLHD/" xlink:title="LLHD"><polygon fill="#fff" stroke="#000" points="367.27 -252 309.27 -252 309.27 -216 367.27 -216 367.27 -252"/><text x="338.27" y="-230.3" font-family="Times,serif" font-size="14" text-anchor="middle">LLHD</text></a></g></g><g id="edge14" class="edge"><title>HW-&gt;LLHD</title><path fill="none" stroke="#000" d="M357.09,-287.7C354.28,-279.81 350.88,-270.3 347.75,-261.55"/><polygon fill="#000" stroke="#000" points="351.04 -260.34 344.38 -252.1 344.45 -262.7 351.04 -260.34"/></g><g id="node17" class="node"><title>ExportVerilog</title><polygon fill="#fdc086" stroke="#000" points="310.27 -180 194.27 -180 194.27 -144 310.27 -144 310.27 -180"/><text x="252.27" y="-158.3" font-family="Times,serif" font-size="14" text-anchor="middle">ExportVerilog</text></g><g id="edge20" class="edge"><title>HW-&gt;ExportVerilog</title><path fill="none" stroke="#000" d="M335.92,-291.03C333.69,-289.97 331.45,-288.95 329.27,-288 287.92,-269.88 259.93,-289.16 234.27,-252 221.55,-233.58 228.49,-208.21 237.18,-189.27"/><polygon fill="#000" stroke="#000" points="240.33 -190.79 241.65 -180.28 234.06 -187.67 240.33 -190.79"/></g><g id="edge31" class="edge"><title>HW-&gt;llhd_sim</title><path fill="none" stroke="#000" d="M380.16,-287.99C388.57,-278.31 397.86,-265.46 402.27,-252 408.37,-233.42 409.22,-226.28 402.27,-208 399.52,-200.75 394.99,-193.91 389.96,-187.87"/><polygon fill="#000" stroke="#000" points="392.23 -185.17 382.9 -180.15 387.07 -189.89 392.23 -185.17"/></g><g id="node25" class="node"><title>Circilator</title><polygon fill="#ff9" stroke="#000" stroke-dasharray="5 2" points="421.46 -82.54 421.46 -97.46 386.79 -108 337.76 -108 303.09 -97.46 303.09 -82.54 337.76 -72 386.79 -72 421.46 -82.54"/><text x="362.27" y="-86.3" font-family="Times,serif" font-size="14" text-anchor="middle">Circilator</text></g><g id="edge24" class="edge"><title>HW-&gt;Circilator</title><path fill="none" stroke="#000" stroke-dasharray="5 2" d="M390.65,-289.86C410.49,-278.25 434.76,-262.49 440.27,-252 449.37,-234.69 442.41,-227.44 440.27,-208 436.7,-175.42 442.26,-163.41 424.27,-136 418.25,-126.82 409.65,-118.87 400.78,-112.33"/><polygon fill="#000" stroke="#000" points="402.48 -109.25 392.26 -106.48 398.52 -115.03 402.48 -109.25"/></g><g id="edge21" class="edge"><title>SV-&gt;ExportVerilog</title><path fill="none" stroke="#000" d="M264.32,-215.7C262.56,-207.98 260.44,-198.71 258.47,-190.11"/><polygon fill="#000" stroke="#000" points="261.82 -189.07 256.18 -180.1 255 -190.63 261.82 -189.07"/></g><g id="node15" class="node"><title>Comb</title><g id="a_node15"><a xlink:href="https://circt.llvm.org/docs/Dialects/Comb/" xlink:title="Comb"><polygon fill="#fff" stroke="#000" points="254.27 -324 196.27 -324 196.27 -288 254.27 -288 254.27 -324"/><text x="225.27" y="-302.3" font-family="Times,serif" font-size="14" text-anchor="middle">Comb</text></a></g></g><g id="edge15" class="edge"><title>Comb-&gt;ExportVerilog</title><path fill="none" stroke="#000" d="M221.48,-287.74C217.88,-268 214.12,-234.93 222.27,-208 224.32,-201.24 227.76,-194.56 231.59,-188.51"/><polygon fill="#000" stroke="#000" points="234.56 -190.36 237.37 -180.14 228.8 -186.38 234.56 -190.36"/></g><g id="edge32" class="edge"><title>Comb-&gt;llhd_sim</title><path fill="none" stroke="#000" d="M254.6,-290.76C256.85,-289.79 259.09,-288.86 261.27,-288 310.32,-268.7 343.17,-294.55 374.27,-252 387.36,-234.1 382.2,-208.62 375.03,-189.51"/><polygon fill="#000" stroke="#000" points="378.23 -188.08 371.19 -180.17 371.76 -190.75 378.23 -188.08"/></g><g id="edge33" class="edge"><title>LLHD-&gt;llhd_sim</title><path fill="none" stroke="#000" d="M344.21,-215.7C346.88,-207.9 350.1,-198.51 353.08,-189.83"/><polygon fill="#000" stroke="#000" points="356.48 -190.7 356.41 -180.1 349.86 -188.43 356.48 -190.7"/></g><g id="edge25" class="edge"><title>LLHD-&gt;Circilator</title><path fill="none" stroke="#000" stroke-dasharray="5 2" d="M367.55,-219.8C383.31,-210.98 401.31,-197.73 410.27,-180 419.1,-162.55 418.05,-153.94 410.27,-136 406.85,-128.09 401.27,-120.93 395.11,-114.77"/><polygon fill="#000" stroke="#000" points="397.44 -112.17 387.7 -108.01 392.73 -117.34 397.44 -112.17"/></g><g id="node28" class="node"><title>SVFile</title><polygon fill="#7fc97f" stroke="#000" points="98.27 -108 50.27 -108 50.27 -72 104.27 -72 104.27 -102 98.27 -108"/><polyline fill="none" stroke="#000" points="98.27 -108 98.27 -102"/><polyline fill="none" stroke="#000" points="104.27 -102 98.27 -102"/><text x="77.27" y="-86.3" font-family="Times,serif" font-size="14" text-anchor="middle">.sv</text></g><g id="edge27" class="edge"><title>ExportVerilog-&gt;SVFile</title><path fill="none" stroke="#000" d="M204.95,-143.98C180.11,-134.82 149.05,-122.99 113.84,-108.1"/><polygon fill="#000" stroke="#000" points="114.87 -104.74 104.3 -104.04 112.13 -111.18 114.87 -104.74"/></g><g id="node18" class="node"><title>FIRRTLParser</title><polygon fill="#fdc086" stroke="#000" points="556.77 -471 439.77 -471 439.77 -435 556.77 -435 556.77 -471"/><text x="498.27" y="-449.3" font-family="Times,serif" font-size="14" text-anchor="middle">FIRRTLParser</text></g><g id="edge19" class="edge"><title>FIRRTLParser-&gt;FIRRTL</title><path fill="none" stroke="#000" d="M468.67,-434.88C452.71,-425.64 432.81,-414.13 415.67,-404.21"/><polygon fill="#000" stroke="#000" points="417.4 -401.17 406.99 -399.19 413.89 -407.23 417.4 -401.17"/></g><g id="edge16" class="edge"><title>Scheduling-&gt;StaticLogic</title><path fill="none" stroke="#000" d="M225.27,-568.67C225.27,-563.69 225.27,-558.49 225.27,-553.51"/><polygon fill="#000" stroke="#000" points="221.77 -568.7 225.27 -578.7 228.77 -568.7 221.77 -568.7"/><polygon fill="#000" stroke="#000" points="228.77 -553.1 225.27 -543.1 221.77 -553.1 228.77 -553.1"/></g><g id="node26" class="node"><title>VCDTrace</title><polygon fill="#7fc97f" stroke="#000" points="283.27 -108 235.27 -108 235.27 -72 289.27 -72 289.27 -102 283.27 -108"/><polyline fill="none" stroke="#000" points="283.27 -108 283.27 -102"/><polyline fill="none" stroke="#000" points="289.27 -102 283.27 -102"/><text x="262.27" y="-86.3" font-family="Times,serif" font-size="14" text-anchor="middle">.vcd</text></g><g id="edge34" class="edge"><title>llhd_sim-&gt;VCDTrace</title><path fill="none" stroke="#000" d="M337.81,-143.88C324.98,-134.89 309.08,-123.76 295.18,-114.03"/><polygon fill="#000" stroke="#000" points="297.03 -111.06 286.83 -108.19 293.02 -116.79 297.03 -111.06"/></g><g id="node21" class="node"><title>PyCDE</title><polygon fill="#fdc086" stroke="#000" points="314.77 -471 247.77 -471 247.77 -435 314.77 -435 314.77 -471"/><text x="281.27" y="-449.3" font-family="Times,serif" font-size="14" text-anchor="middle">PyCDE</text></g><g id="edge38" class="edge"><title>PyCDE-&gt;ESI</title><path fill="none" stroke="#000" stroke-dasharray="5 2" d="M281.27,-434.7C281.27,-426.98 281.27,-417.71 281.27,-409.11"/><polygon fill="#000" stroke="#000" points="284.77 -409.1 281.27 -399.1 277.77 -409.1 284.77 -409.1"/></g><g id="edge12" class="edge"><title>PyCDE-&gt;HW</title><path fill="none" stroke="#000" d="M293.01,-434.58C299.75,-424.35 308.25,-411.1 315.27,-399 321.72,-387.88 328.3,-375.82 334.44,-364.2"/><polygon fill="#000" stroke="#000" points="337.72 -365.48 339.26 -355 331.52 -362.23 337.72 -365.48"/></g><g id="node22" class="node"><title>Moore</title><polygon fill="#ff9" stroke="#000" points="150.01 -298.54 150.01 -313.46 124.39 -324 88.16 -324 62.54 -313.46 62.54 -298.54 88.16 -288 124.39 -288 150.01 -298.54"/><text x="106.27" y="-302.3" font-family="Times,serif" font-size="14" text-anchor="middle">Moore</text></g><g id="edge23" class="edge"><title>Moore-&gt;LLHD</title><path fill="none" stroke="#000" d="M145.58,-296.53C183.51,-287.89 242.54,-273.2 299.5,-252.81"/><polygon fill="#000" stroke="#000" points="300.79 -256.06 308.99 -249.35 298.39 -249.48 300.79 -256.06"/></g><g id="edge28" class="edge"><title>Calyx_native-&gt;SVFile</title><path fill="none" stroke="#000" d="M71.17,-143.7C70.77,-135.98 70.86,-126.71 71.37,-118.11"/><polygon fill="#000" stroke="#000" points="74.86 -118.36 72.2 -108.1 67.88 -117.78 74.86 -118.36"/></g><g id="node24" class="node"><title>Chisel</title><polygon fill="#ff9" stroke="#000" points="643.1 -680.54 643.1 -695.46 618.01 -706 582.53 -706 557.45 -695.46 557.45 -680.54 582.53 -670 618.01 -670 643.1 -680.54"/><text x="600.27" y="-684.3" font-family="Times,serif" font-size="14" text-anchor="middle">Chisel</text></g><g id="node31" class="node"><title>FIRFile</title><polygon fill="#7fc97f" stroke="#000" points="621.27 -615 573.27 -615 573.27 -579 627.27 -579 627.27 -609 621.27 -615"/><polyline fill="none" stroke="#000" points="621.27 -615 621.27 -609"/><polyline fill="none" stroke="#000" points="627.27 -609 621.27 -609"/><text x="600.27" y="-593.3" font-family="Times,serif" font-size="14" text-anchor="middle">.fir</text></g><g id="edge17" class="edge"><title>Chisel-&gt;FIRFile</title><path fill="none" stroke="#000" d="M600.27,-669.84C600.27,-657.28 600.27,-639.98 600.27,-625.5"/><polygon fill="#000" stroke="#000" points="603.77 -625.11 600.27 -615.11 596.77 -625.11 603.77 -625.11"/></g><g id="node27" class="node"><title>CPPFile</title><polygon fill="#7fc97f" stroke="#000" points="383.27 -36 335.27 -36 335.27 0 389.27 0 389.27 -30 383.27 -36"/><polyline fill="none" stroke="#000" points="383.27 -36 383.27 -30"/><polyline fill="none" stroke="#000" points="389.27 -30 383.27 -30"/><text x="362.27" y="-14.3" font-family="Times,serif" font-size="14" text-anchor="middle">.cpp</text></g><g id="edge29" class="edge"><title>Circilator-&gt;CPPFile</title><path fill="none" stroke="#000" stroke-dasharray="5 2" d="M362.27,-71.7C362.27,-63.98 362.27,-54.71 362.27,-46.11"/><polygon fill="#000" stroke="#000" points="365.77 -46.1 362.27 -36.1 358.77 -46.1 365.77 -46.1"/></g><g id="edge18" class="edge"><title>FIRFile-&gt;FIRRTLParser</title><path fill="none" stroke="#000" d="M615.95,-578.8C631.1,-559.99 649.67,-529.53 634.27,-507 618.87,-484.46 592.34,-471.51 566.78,-464.06"/><polygon fill="#000" stroke="#000" points="567.63 -460.66 557.06 -461.47 565.82 -467.43 567.63 -460.66"/></g><g id="node33" class="node"><title>PyFile</title><polygon fill="#7fc97f" stroke="#000" points="621.27 -543 573.27 -543 573.27 -507 627.27 -507 627.27 -537 621.27 -543"/><polyline fill="none" stroke="#000" points="621.27 -543 621.27 -537"/><polyline fill="none" stroke="#000" points="627.27 -537 621.27 -537"/><text x="600.27" y="-521.3" font-family="Times,serif" font-size="14" text-anchor="middle">.py</text></g><g id="node32" class="node"><title>SVVHDL</title><polygon fill="#7fc97f" stroke="#000" points="136.27 -399 70.27 -399 70.27 -363 142.27 -363 142.27 -393 136.27 -399"/><polyline fill="none" stroke="#000" points="136.27 -399 136.27 -393"/><polyline fill="none" stroke="#000" points="142.27 -393 136.27 -393"/><text x="106.27" y="-377.3" font-family="Times,serif" font-size="14" text-anchor="middle">.sv/.vhd</text></g><g id="edge22" class="edge"><title>SVVHDL-&gt;Moore</title><path fill="none" stroke="#000" d="M106.27,-362.7C106.27,-354.25 106.27,-343.87 106.27,-334.37"/><polygon fill="#000" stroke="#000" points="109.77 -334.18 106.27 -324.18 102.77 -334.18 109.77 -334.18"/></g><g id="edge37" class="edge"><title>PyFile-&gt;PyCDE</title><path fill="none" stroke="#000" d="M572.96,-508.72C571.4,-508.09 569.83,-507.51 568.27,-507 466.35,-473.58 430.87,-498.81 324.85,-471.39"/><polygon fill="#000" stroke="#000" points="325.62 -467.98 315.05 -468.76 323.8 -474.74 325.62 -467.98"/></g></g></svg>